<svg id="Layer_1" data-name="Layer 1" xmlns="http://www.w3.org/2000/svg" xmlns:xlink="http://www.w3.org/1999/xlink" viewBox="0 0 326.33 301.48"><defs><style>.cls-1{fill:#00aeef;}.cls-2{fill:url(#linear-gradient);}.cls-10,.cls-13,.cls-16,.cls-19,.cls-22,.cls-25,.cls-28,.cls-3,.cls-31,.cls-34,.cls-37,.cls-4,.cls-7{fill:none;stroke-width:0.75px;}.cls-19,.cls-28,.cls-3,.cls-31,.cls-34,.cls-37,.cls-4{stroke-linecap:round;stroke-linejoin:round;}.cls-3{stroke:url(#linear-gradient-2);}.cls-4{stroke:url(#linear-gradient-3);}.cls-5{fill:url(#linear-gradient-4);}.cls-6{fill:url(#linear-gradient-5);}.cls-10,.cls-13,.cls-16,.cls-22,.cls-25,.cls-7{stroke-miterlimit:10;}.cls-7{stroke:url(#linear-gradient-6);}.cls-8{fill:url(#linear-gradient-7);}.cls-9{fill:url(#linear-gradient-8);}.cls-10{stroke:url(#linear-gradient-9);}.cls-11{fill:url(#linear-gradient-10);}.cls-12{fill:url(#linear-gradient-11);}.cls-13{stroke:url(#linear-gradient-12);}.cls-14{fill:url(#linear-gradient-13);}.cls-15{fill:url(#linear-gradient-14);}.cls-16{stroke:url(#linear-gradient-15);}.cls-17{fill:url(#linear-gradient-16);}.cls-18{fill:url(#linear-gradient-17);}.cls-19{stroke:url(#linear-gradient-18);}.cls-20{fill:url(#linear-gradient-19);}.cls-21{fill:url(#linear-gradient-20);}.cls-22{stroke:url(#linear-gradient-21);}.cls-23{fill:url(#linear-gradient-22);}.cls-24{fill:url(#linear-gradient-23);}.cls-25{stroke:url(#linear-gradient-24);}.cls-26{fill:url(#linear-gradient-25);}.cls-27{fill:url(#linear-gradient-26);}.cls-28{stroke:url(#linear-gradient-27);}.cls-29{fill:url(#linear-gradient-28);}.cls-30{fill:url(#linear-gradient-29);}.cls-31{stroke:url(#linear-gradient-30);}.cls-32{fill:url(#linear-gradient-31);}.cls-33{fill:url(#linear-gradient-32);}.cls-34{stroke:url(#linear-gradient-33);}.cls-35{fill:url(#linear-gradient-34);}.cls-36{fill:url(#linear-gradient-35);}.cls-37{stroke:url(#linear-gradient-36);}.cls-38{fill:url(#linear-gradient-37);}.cls-39{fill:url(#linear-gradient-38);}</style><linearGradient id="linear-gradient" x1="88.3" y1="145.79" x2="244.74" y2="145.79" gradientUnits="userSpaceOnUse"><stop offset="0.01" stop-color="#2bb673"/><stop offset="0.07" stop-color="#2eb471"/><stop offset="0.12" stop-color="#38af6c"/><stop offset="0.16" stop-color="#49a762"/><stop offset="0.2" stop-color="#619b55"/><stop offset="0.24" stop-color="#7f8c43"/><stop offset="0.25" stop-color="#89873e"/><stop offset="0.26" stop-color="#7d843d"/><stop offset="0.32" stop-color="#507a3c"/><stop offset="0.37" stop-color="#2d723a"/><stop offset="0.41" stop-color="#146d39"/><stop offset="0.46" stop-color="#056938"/><stop offset="0.49" stop-color="#006838"/><stop offset="0.55" stop-color="#036938"/><stop offset="0.59" stop-color="#0d6d3a"/><stop offset="0.63" stop-color="#1e723d"/><stop offset="0.67" stop-color="#357b40"/><stop offset="0.71" stop-color="#538645"/><stop offset="0.74" stop-color="#78924a"/><stop offset="0.74" stop-color="#7c944b"/><stop offset="0.78" stop-color="#61a059"/><stop offset="0.83" stop-color="#49a964"/><stop offset="0.87" stop-color="#38b06c"/><stop offset="0.93" stop-color="#2eb571"/><stop offset="0.99" stop-color="#2bb673"/></linearGradient><linearGradient id="linear-gradient-2" x1="165.54" y1="37.16" x2="182.8" y2="37.16" gradientTransform="translate(34.08 -62.77) rotate(30)" gradientUnits="userSpaceOnUse"><stop offset="0" stop-color="#fbb040"/><stop offset="0.33" stop-color="#fff"/><stop offset="1" stop-color="#fbb040"/></linearGradient><linearGradient id="linear-gradient-3" x1="148.94" y1="89.06" x2="183.73" y2="109.15" gradientTransform="matrix(1, 0, 0, 1, 0, 0)" xlink:href="#linear-gradient-2"/><linearGradient id="linear-gradient-4" x1="158.6" y1="72.33" x2="193.39" y2="92.41" gradientTransform="matrix(1, 0, 0, 1, 0, 0)" xlink:href="#linear-gradient-2"/><linearGradient id="linear-gradient-5" x1="158.96" y1="71.71" x2="193.75" y2="91.8" gradientTransform="translate(162.35 -113.8) rotate(60)" xlink:href="#linear-gradient-2"/><linearGradient id="linear-gradient-6" x1="148.4" y1="134.8" x2="150.4" y2="134.8" gradientTransform="matrix(1, 0, 0, 1, 0, 0)" xlink:href="#linear-gradient-2"/><linearGradient id="linear-gradient-7" x1="148.4" y1="62.93" x2="150.4" y2="62.93" gradientTransform="translate(211.65 -87.62) rotate(89.51)" xlink:href="#linear-gradient-2"/><linearGradient id="linear-gradient-8" x1="148.4" y1="206.67" x2="150.4" y2="206.67" gradientTransform="translate(354.15 56.11) rotate(89.51)" xlink:href="#linear-gradient-2"/><linearGradient id="linear-gradient-9" x1="182.71" y1="135.55" x2="183.83" y2="135.55" gradientTransform="matrix(1, 0, 0, 1, 0, 0)" xlink:href="#linear-gradient-2"/><linearGradient id="linear-gradient-10" x1="182.71" y1="63.86" x2="183.83" y2="63.86" gradientTransform="translate(246.85 -119.76) rotate(89.85)" xlink:href="#linear-gradient-2"/><linearGradient id="linear-gradient-11" x1="182.71" y1="207.23" x2="183.83" y2="207.23" gradientTransform="translate(389.83 23.6) rotate(89.85)" xlink:href="#linear-gradient-2"/><linearGradient id="linear-gradient-12" x1="145.53" y1="125.98" x2="186.39" y2="125.98" gradientTransform="matrix(1, 0, 0, 1, 0, 0)" xlink:href="#linear-gradient-2"/><linearGradient id="linear-gradient-13" x1="145.53" y1="115.07" x2="186.39" y2="115.07" gradientTransform="translate(175.47 -68.88) rotate(60.81)" xlink:href="#linear-gradient-2"/><linearGradient id="linear-gradient-14" x1="145.53" y1="136.9" x2="186.39" y2="136.9" gradientTransform="translate(214.54 -91.81) rotate(60.81)" xlink:href="#linear-gradient-2"/><linearGradient id="linear-gradient-15" x1="188.65" y1="125.23" x2="146.15" y2="125.23" gradientTransform="matrix(1, 0, 0, 1, 0, 0)" xlink:href="#linear-gradient-2"/><linearGradient id="linear-gradient-16" x1="188.65" y1="113.45" x2="146.15" y2="113.45" gradientTransform="translate(82.06 -78.78) rotate(30.05)" xlink:href="#linear-gradient-2"/><linearGradient id="linear-gradient-17" x1="188.65" y1="137.01" x2="146.15" y2="137.01" gradientTransform="translate(88.39 -55.22) rotate(30.05)" xlink:href="#linear-gradient-2"/><linearGradient id="linear-gradient-18" x1="180.48" y1="137.19" x2="152.19" y2="153.52" gradientTransform="matrix(1, 0, 0, 1, 0, 0)" xlink:href="#linear-gradient-2"/><linearGradient id="linear-gradient-19" x1="174.06" y1="126.08" x2="145.77" y2="142.41" gradientTransform="matrix(1, 0, 0, 1, 0, 0)" xlink:href="#linear-gradient-2"/><linearGradient id="linear-gradient-20" x1="173.71" y1="125.46" x2="145.41" y2="141.8" gradientTransform="translate(89.21 -58.05) rotate(30)" xlink:href="#linear-gradient-2"/><linearGradient id="linear-gradient-21" x1="143.15" y1="169.23" x2="204.9" y2="169.23" gradientTransform="matrix(1, 0, 0, 1, 0, 0)" xlink:href="#linear-gradient-2"/><linearGradient id="linear-gradient-22" x1="143.15" y1="151.95" x2="204.9" y2="151.95" gradientTransform="translate(203.76 -48.72) rotate(60.04)" xlink:href="#linear-gradient-2"/><linearGradient id="linear-gradient-23" x1="143.15" y1="186.51" x2="204.9" y2="186.51" gradientTransform="translate(263.72 -83.37) rotate(60.04)" xlink:href="#linear-gradient-2"/><linearGradient id="linear-gradient-24" x1="190.77" y1="168.67" x2="128.4" y2="168.67" gradientTransform="matrix(1, 0, 0, 1, 0, 0)" xlink:href="#linear-gradient-2"/><linearGradient id="linear-gradient-25" x1="190.77" y1="151.57" x2="128.4" y2="151.57" gradientTransform="translate(99.04 -73.76) rotate(29.44)" xlink:href="#linear-gradient-2"/><linearGradient id="linear-gradient-26" x1="190.77" y1="185.77" x2="128.4" y2="185.77" gradientTransform="translate(108.02 -39.56) rotate(29.44)" xlink:href="#linear-gradient-2"/><linearGradient id="linear-gradient-27" x1="93.46" y1="53.25" x2="150.79" y2="53.25" gradientTransform="matrix(1, 0, 0, 1, 0, 0)" xlink:href="#linear-gradient-2"/><linearGradient id="linear-gradient-28" x1="93.46" y1="21.7" x2="150.79" y2="21.7" gradientTransform="translate(37.84 -56.92) rotate(41.33)" xlink:href="#linear-gradient-2"/><linearGradient id="linear-gradient-29" x1="93.46" y1="84.81" x2="150.79" y2="84.81" gradientTransform="translate(93.35 -77.86) rotate(41.33)" xlink:href="#linear-gradient-2"/><linearGradient id="linear-gradient-30" x1="238.96" y1="52.6" x2="182.46" y2="52.6" gradientTransform="matrix(1, 0, 0, 1, 0, 0)" xlink:href="#linear-gradient-2"/><linearGradient id="linear-gradient-31" x1="238.96" y1="21.53" x2="182.46" y2="21.53" gradientTransform="translate(96.97 -171.41) rotate(48.66)" xlink:href="#linear-gradient-2"/><linearGradient id="linear-gradient-32" x1="238.96" y1="83.66" x2="182.46" y2="83.66" gradientTransform="translate(125.06 -109.28) rotate(48.66)" xlink:href="#linear-gradient-2"/><linearGradient id="linear-gradient-33" x1="149.21" y1="222.92" x2="98.63" y2="222.92" gradientTransform="matrix(1, 0, 0, 1, 0, 0)" xlink:href="#linear-gradient-2"/><linearGradient id="linear-gradient-34" x1="149.21" y1="175.65" x2="98.63" y2="175.65" gradientTransform="translate(235.96 -37.04) rotate(62.57)" xlink:href="#linear-gradient-2"/><linearGradient id="linear-gradient-35" x1="149.21" y1="270.19" x2="98.63" y2="270.19" gradientTransform="translate(293.4 57.51) rotate(62.57)" xlink:href="#linear-gradient-2"/><linearGradient id="linear-gradient-36" x1="182.62" y1="222.5" x2="232.96" y2="222.5" gradientTransform="matrix(1, 0, 0, 1, 0, 0)" xlink:href="#linear-gradient-2"/><linearGradient id="linear-gradient-37" x1="182.62" y1="175.15" x2="232.96" y2="175.15" gradientTransform="translate(100.65 -64.56) rotate(27.27)" xlink:href="#linear-gradient-2"/><linearGradient id="linear-gradient-38" x1="182.62" y1="269.86" x2="232.96" y2="269.86" gradientTransform="translate(149.49 -76.41) rotate(27.28)" xlink:href="#linear-gradient-2"/></defs><title>Technoman</title><path class="cls-1" d="M166.72,218.67,147.8,207.45l.38-33.43,18.15-10.2L184.07,174l0,34.57Zm-16.91-12.35,16.93,10,15.37-8.9,0-32.26-15.75-9.07-16.15,9.08Z"/><path class="cls-1" d="M120.24,192l-17.12-10.15v-20.6l29.44-17,17.85,10.3-.24,20.62Zm-15.12-11.29,15.15,9L148.18,174l.21-18.3-15.83-9.14-27.44,15.84Z"/><path class="cls-1" d="M212,192.44l-30-17.25,0-20.5,18.06-10.42,29.58,17.08v20.88Zm-28-18.41,28,16.1,15.66-9.06V162.5l-27.58-15.92-16.06,9.27Z"/><path class="cls-1" d="M59.4,211.89l-38.22-66L93.62,20.06,170,20l-65.5,37.84L60.14,82.74l-.62,53.88-.2.11,0,15.62,0,1.37,0,.44Zm-35.92-66,33.91,58.59-.08-50.29,0-1.8.19-16.88.57-49.73ZM94.78,22.06,61.64,79.61l41.44-23.3.4-.25,59-34.07Z"/><path class="cls-1" d="M93.89,271.48l-38.23-66,65.13,37.51.4-.23,45.14,26.06,61.35-35.42v-.42l44.82-25.2.61-53,.22-.13,0-17.67v-.66l-.06-52.52L227.69,57.55V57.5L162.71,20l76.06-.08L275,82.49l.27.15V83l36.22,62.58L239,271.32h-.58ZM61.13,210.89,95,269.48l68.39-.07L121.19,245ZM229.69,234.5l-60.44,34.9,68.64-.07,33.93-58.91Zm45.42-78.56-.57,49.76,34.65-60.16L275.27,87l.06,49.38V137ZM229.69,56.39l41.84,24.1L237.62,21.91,170.17,22l59.52,34.37Z"/><polygon class="cls-1" points="227.69 183.49 227.69 181.07 229.82 179.84 229.82 182.25 227.69 183.49"/><path class="cls-1" d="M227.83,183.3V110.25l-.14-.08v-2.66l47.63,28.24V137l-.22,19Zm2-72.2v68.73l43.29-25.06.21-17.89Z"/><path class="cls-1" d="M105,183,57.34,154.73v-2.39l.19-16.88L105,108v20.34l.14.08v34l-.14.08ZM59.34,153.59,103,179.46V161.35l.14-.08V129.58l-.14-.08v-18L59.52,136.62l-.18,15.73Z"/><line class="cls-1" x1="162.49" y1="22" x2="170.17" y2="21.97"/><path class="cls-1" d="M229.69,111l-18.29-10.2-28.05-16.2L164.74,73.41l47.13-27.28,17.81,10.26Zm-61-37.52,15.68,9.4,28,16.18,15.3,8.53v-50l-15.81-9.11Z"/><path class="cls-1" d="M200.11,146.58l-17.87-10.32.24-21,29.41-16.53L229.69,109V129.5Zm-15.85-11.46,15.85,9.15,27.58-15.92V110.17L211.88,101l-27.41,15.41Z"/><path class="cls-1" d="M103,111.47V56.37l18.95-10.65,46.76,27.72L150.56,83.93l-.5.37-29.39,17,0,0Zm2-53.93V108l15.66-9.07,0,0,27.88-16.1.49-.37,15.67-9.07L121.9,48Z"/><path class="cls-1" d="M132.56,146.58l-29.44-17V109.1L120.67,99l29.92,17.23,0,20Zm-27.44-18.15,27.44,15.84L148.61,135l0-17.65-27.92-16.08-15.56,9Z"/><path class="cls-1" d="M165.52,127.1l-16.93-9.75,0-34.49,17.91-10.34,18.38,10.61-.38,33.32Zm-14.93-10.91,14.94,8.61,16.95-9.53.36-31-16.37-9.45L150.56,84Z"/><polygon class="cls-1" points="148.6 137.31 148.64 134.3 165.54 124.8 167.91 126.17 148.6 137.31"/><polygon class="cls-1" points="166.49 218.82 164.41 217.71 166.71 216.36 168.79 217.47 166.49 218.82"/><path class="cls-1" d="M121.19,245,103,234.5v-55l2.14,1.26v.37l63.34,36.57ZM105,233.35l16.21,9.36,43.27-25L105,183.33Z"/><path class="cls-1" d="M210.72,244.75l-46-27.25L229.69,180v54.07Zm-42-27.22,42,24.92,16.93-9.52V183.49Z"/><polygon class="cls-1" points="166.32 166.12 148.63 155.93 148.63 153.62 150.13 154.42 166.33 163.77 184.04 153.54 184.01 156.17 166.32 166.12"/><polygon class="cls-1" points="182.03 157.03 182.02 155.28 182.05 152.98 184.05 152.99 184.05 155.84 182.03 157.03"/><polygon class="cls-1" points="150.06 136.47 149.99 136.33 148.62 136.32 148.61 134.96 150.63 133.95 150.62 136.33 150 136.33 150.07 136.47 150.06 136.47"/><polygon class="cls-1" points="150.64 157.01 148.39 155.72 148.62 136.31 150.62 136.32 150.64 157.01"/><polygon class="cls-1" points="184.05 153.01 182.05 153 182.03 136.61 163.91 126.17 166.33 124.77 184.25 135.12 184.05 153.01"/><path class="cls-2" d="M227.77,269.42c3-.06,7.23-.09,10.12-.1.46-.62.8-1.31,1.21-1.86a54.11,54.11,0,0,0-4.17-5.08c-1.75-1.75-3.68-5.39-5.69-7.84s-5.56-10.38-6.09-12.53-2.06-10.34-2.45-12.09-1.8-7.53-2.72-10.12a37.75,37.75,0,0,0-4.77-8.32,27.73,27.73,0,0,1-3.68-4.42c-.44-1-3.2-8.5-3.59-9.42s-2-3.5-2.41-4.42-.57-3.55-1-4.91-2.89-9.51-3.37-11-6.31-13.4-6.7-14.41-4.69-7.8-4.69-8.06a26.16,26.16,0,0,0-.39-3.5c-.31-1.71-1.93-8.32-2.19-10.08s-1.4-10.47-1.27-13.45,1.49-10,1.66-11.74a50.91,50.91,0,0,1,1.58-5.85c.06,0,.14-.23.11-.37.75-2.44,1.51-4.8,1.68-5.48,0-.16.08-.35.12-.55,0,0,.94-4.74,1-5.6a12.14,12.14,0,0,0-.4-2.35,14.15,14.15,0,0,1-.43-2.53,21.37,21.37,0,0,0,2.24-3.88l.21-.48a44.63,44.63,0,0,0,3.83-7.66c.45-1,.77-1.77.85-2.07.32-1.16,3.6-4.89,4.21-5.52a15.12,15.12,0,0,0,2.53-4.38c.25-1.12,3.61-3.66,4.12-4.28s2-.8,5.66-4a27.15,27.15,0,0,0,6.21-8.37c.56-1.09,4.49-8.05,4.87-9.49s4.8-6.18,5.47-6.88A48.34,48.34,0,0,1,234,33.22a60.09,60.09,0,0,0,6.35-6.33c-.77-1.39-1.77-3.3-2.67-5-.48,0-1,0-1.18,0l-3.79,0a14.21,14.21,0,0,1-1.25,1.1c-1,.71-.64.29-.75-.2a1.63,1.63,0,0,1,.22-.91h-2.65l-.18.38a41.42,41.42,0,0,0-2,4.5c-.08.59-2,6.38-3.09,7.9s-5.77,5-6.77,5.55a83,83,0,0,0-8.91,7.23,16,16,0,0,0-3.44,4.91,11.76,11.76,0,0,1-4.64,6.2,45.67,45.67,0,0,0-7.19,6c-.59.56-3.67,4.48-4.5,5.43s-3.31,3.95-4.69,4.88a31.52,31.52,0,0,0-3.44,2.73L174.27,76c-.77-.22-1.12-.88-1.73-2a9.91,9.91,0,0,1-.48-4.21c.1-.67,1.91-3.53,1.95-4.82.26-.33,1-.11,1.51-.59s2.17-5.52,2-7.29c-.09-.85-.66-1.64-1-1.64s-.92-.07-.92-.07-.13-3-.07-3.61a14.12,14.12,0,0,0-1.71-5.19,8.31,8.31,0,0,0-6.53-3.84l-1.64-.08a8.21,8.21,0,0,0-6.57,3.66,14.11,14.11,0,0,0-1.71,5.19c.07.59-.07,3.61-.07,3.61s-.59.07-.92.07-.89.79-1,1.64c-.2,1.77,1.45,6.81,2,7.29s1.25.26,1.51.59c0,1.29,1.85,4.15,1.95,4.82a9.91,9.91,0,0,1-.48,4.21c-.61,1.12-1,1.77-1.73,2l-4.74,1.4a32.27,32.27,0,0,0-3.6-2.88c-1.39-.94-3.86-3.94-4.69-4.88s-3.91-4.86-4.5-5.43a45.67,45.67,0,0,0-7.19-6,11.76,11.76,0,0,1-4.64-6.2,16,16,0,0,0-3.44-4.91,83.06,83.06,0,0,0-8.91-7.23c-1-.54-5.7-4-6.77-5.55s-3-7.31-3.09-7.9a37.36,37.36,0,0,0-1.91-4.28l-2.75,0a.82.82,0,0,1,0,.35c-.11.49.21.91-.75.2-.2-.15-.43-.35-.68-.57l-3.71-.07a27.28,27.28,0,0,1-2.8,0c-.53,1-1,2-1.09,2.13s-.52,1-1,2a64.92,64.92,0,0,0,6.76,6.79,48.36,48.36,0,0,1,4.62,3.06c.67.7,5.09,5.44,5.47,6.88s4.31,8.4,4.87,9.49a27.15,27.15,0,0,0,6.21,8.37c3.7,3.21,5.14,3.39,5.66,4s3.88,3.16,4.12,4.28a15.12,15.12,0,0,0,2.53,4.38c.61.62,3.88,4.35,4.21,5.52s4.42,9.7,4.93,11A21.45,21.45,0,0,0,144,93.53c-.07,1.71-.79,3.46-.83,4.93a44.19,44.19,0,0,0,.77,5.61c.35,1.4,3.2,9.94,3.37,11.7s1.53,8.76,1.66,11.74-1,11.7-1.27,13.45-1.88,8.37-2.19,10.08a26.17,26.17,0,0,0-.39,3.5c0,.26-4.29,7.05-4.69,8.06s-6.22,12.88-6.7,14.41-3,9.68-3.37,11-.53,4-1,4.91-2,3.5-2.41,4.42-3.15,8.41-3.59,9.42a27.74,27.74,0,0,1-3.68,4.42,37.75,37.75,0,0,0-4.77,8.32c-.92,2.58-2.32,8.37-2.72,10.12s-1.93,9.94-2.45,12.09-4.07,10.08-6.09,12.53-3.94,6.09-5.69,7.84a54.8,54.8,0,0,0-4.26,5.19l1,1.28c-.12-.15.31.43.73,1l2.54.06c.46,0,4.56.11,6.88.12l.08-.18a60,60,0,0,0,2.37-6.88c.31-1.53,2.93-4.77,3.46-5.69s9.94-13.27,10.73-14.67,4.34-8.41,4.69-9.33,4.12-10,4.47-11.91a32.37,32.37,0,0,1,2.54-6.75c3.42-3.33,5-7.54,6.57-9.46,1.4-1.75,5.13-5,6.44-7,0,0,9.9-15.29,10.38-16.3s4.34-7.62,4.91-8.63,2.66-5.72,3.32-6,.41-.22,1.63-.75a6.15,6.15,0,0,1,1.81,1.22c.47.55,2.59,4.81,3.16,5.82s4.42,7.62,4.91,8.63,10.38,16.3,10.38,16.3c1.31,2,5,5.26,6.44,7,1.53,1.92,3.15,6.13,6.57,9.46a32.36,32.36,0,0,1,2.54,6.75c.35,1.93,4.12,11,4.47,11.91s3.9,7.93,4.69,9.33,10.21,13.75,10.73,14.67,3.15,4.16,3.46,5.69A57.25,57.25,0,0,0,227.77,269.42Z"/><polygon class="cls-3" points="171.83 49.51 171.83 63.48 166.33 66.65 160.84 63.48 160.84 49.51 166.33 46.34 171.83 49.51"/><polyline class="cls-4" points="180.44 84.89 180.44 114.1 166.33 122.24 152.23 114.1 152.23 84.11 166.33 75.97 179.76 83.72"/><circle class="cls-5" cx="180.43" cy="84.93" r="0.82"/><circle class="cls-6" cx="179.73" cy="83.7" r="0.82" transform="translate(17.37 197.5) rotate(-60)"/><line class="cls-7" x1="150.01" y1="62.88" x2="148.78" y2="206.71"/><circle class="cls-8" cx="150.01" cy="62.93" r="0.82" transform="translate(85.8 212.39) rotate(-89.51)"/><circle class="cls-9" cx="148.78" cy="206.67" r="0.82" transform="matrix(0.01, -1, 1, 0.01, -59.16, 353.66)"/><line class="cls-10" x1="183.46" y1="63.82" x2="183.09" y2="207.27"/><circle class="cls-11" cx="183.46" cy="63.86" r="0.82" transform="translate(119.12 247.15) rotate(-89.85)"/><circle class="cls-12" cx="183.09" cy="207.23" r="0.82" transform="translate(-24.62 389.77) rotate(-89.85)"/><line class="cls-13" x1="146.39" y1="115.05" x2="185.53" y2="136.92"/><circle class="cls-14" cx="146.42" cy="115.07" r="0.82" transform="translate(-25.44 186.78) rotate(-60.81)"/><circle class="cls-15" cx="185.49" cy="136.9" r="0.82" transform="translate(-24.48 232.07) rotate(-60.81)"/><line class="cls-16" x1="187.79" y1="113.43" x2="147.01" y2="137.03"/><circle class="cls-17" cx="187.75" cy="113.45" r="0.82" transform="translate(-31.58 109.28) rotate(-30.05)"/><circle class="cls-18" cx="147.04" cy="137.01" r="0.82" transform="translate(-48.85 92.06) rotate(-30.05)"/><polyline class="cls-19" points="152.23 138.64 152.23 152.85 166.33 160.99 180.44 152.85 180.44 137.86 166.33 129.72 152.9 137.47"/><circle class="cls-20" cx="152.23" cy="138.68" r="0.82"/><circle class="cls-21" cx="152.94" cy="137.45" r="0.82" transform="translate(-48.24 94.88) rotate(-30)"/><line class="cls-22" x1="144.01" y1="151.93" x2="204.04" y2="186.53"/><circle class="cls-23" cx="144.04" cy="151.95" r="0.82" transform="translate(-59.54 200.87) rotate(-60.04)"/><circle class="cls-24" cx="204" cy="186.51" r="0.82" transform="translate(-59.46 270.11) rotate(-60.04)"/><line class="cls-25" x1="189.91" y1="151.55" x2="129.26" y2="185.79"/><circle class="cls-26" cx="189.87" cy="151.57" r="0.82" transform="translate(-49.99 112.92) rotate(-29.44)"/><circle class="cls-27" cx="129.3" cy="185.77" r="0.82" transform="translate(-74.62 87.56) rotate(-29.44)"/><line class="cls-28" x1="94.35" y1="21.67" x2="149.9" y2="84.84"/><circle class="cls-29" cx="94.37" cy="21.7" r="0.82" transform="translate(9.18 67.73) rotate(-41.33)"/><circle class="cls-30" cx="149.88" cy="84.81" r="0.82" transform="translate(-18.67 120.11) rotate(-41.33)"/><line class="cls-31" x1="238.07" y1="21.5" x2="183.35" y2="83.69"/><circle class="cls-32" cx="238.04" cy="21.53" r="0.82" transform="translate(64.63 186.02) rotate(-48.66)"/><circle class="cls-33" cx="183.38" cy="83.66" r="0.82" transform="translate(-0.57 166.07) rotate(-48.66)"/><line class="cls-34" x1="148.48" y1="175.61" x2="99.36" y2="270.23"/><circle class="cls-35" cx="148.46" cy="175.65" r="0.82" transform="translate(-75.83 226.49) rotate(-62.57)"/><circle class="cls-36" cx="99.38" cy="270.19" r="0.82" transform="translate(-186.22 233.92) rotate(-62.57)"/><line class="cls-37" x1="183.36" y1="175.11" x2="232.23" y2="269.9"/><circle class="cls-38" cx="183.37" cy="175.15" r="0.82" transform="translate(-59.87 103.5) rotate(-27.27)"/><circle class="cls-39" cx="232.21" cy="269.86" r="0.82" transform="translate(-97.85 136.42) rotate(-27.28)"/></svg>